<svg version="1.1" viewBox="0.0 0.0 575.3359580052494 219.07611548556432" fill="none" stroke="none" stroke-linecap="square" stroke-miterlimit="10" xmlns:xlink="http://www.w3.org/1999/xlink" xmlns="http://www.w3.org/2000/svg"><clipPath id="p.0"><path d="m0 0l575.33594 0l0 219.07611l-575.33594 0l0 -219.07611z" clip-rule="nonzero"/></clipPath><g clip-path="url(#p.0)"><path fill="#000000" fill-opacity="0.0" d="m0 0l575.33594 0l0 219.07611l-575.33594 0z" fill-rule="evenodd"/><path fill="#000000" d="m0 0l575.33856 0l0 219.1181l-575.33856 0z" fill-rule="evenodd"/><path fill="#f3f3f3" d="m45.598923 128.0903q0.546875 0.796875 2.4375 1.5q1.90625 0.703125 3.84375 0.703125q3.125 0 4.6875 -1.296875q1.578125 -1.296875 1.578125 -3.4375q0 -2.203125 -1.9375 -3.5625q-1.9375 -1.375 -6.53125 -3.375l-1.875 -0.796875q-4.59375 -1.921875 -6.859375 -4.65625q-2.265625 -2.734375 -2.265625 -7.078125q0 -3.0 1.796875 -5.359375q1.796875 -2.359375 5.0625 -3.6875q3.265625 -1.34375 7.53125 -1.34375q3.140625 0 5.375 0.40625q2.234375 0.390625 4.6875 1.0625q1.34375 0.46875 2.0 0.53125l0 8.734375l-5.265625 0l-1.53125 -5.0625q-0.390625 -0.671875 -1.796875 -1.203125q-1.390625 -0.53125 -3.203125 -0.53125q-2.734375 0 -4.375 1.171875q-1.625 1.15625 -1.625 3.21875q0 1.875 1.125 3.109375q1.140625 1.21875 2.46875 1.890625q1.34375 0.671875 4.9375 2.203125q3.609375 1.53125 5.96875 2.9375q2.375 1.390625 3.9375 3.625q1.5625 2.234375 1.5625 5.4375q0 4.921875 -3.875 8.0q-3.859375 3.0625 -11.125 3.0625q-3.390625 0 -6.09375 -0.609375q-2.703125 -0.59375 -6.234375 -1.59375l-1.46875 -0.46875l0 -8.796875l5.53125 0l1.53125 5.265625z" fill-rule="nonzero"/><path fill="#f3f3f3" d="m88.60051 114.9653q0 -6.0 2.46875 -10.390625q2.46875 -4.40625 6.5 -6.703125q4.03125 -2.3125 8.625 -2.3125q8.40625 0 12.625 5.34375q4.234375 5.328125 4.234375 14.0q0 6.0625 -2.46875 10.46875q-2.453125 4.390625 -6.484375 6.65625q-4.03125 2.265625 -8.640625 2.265625q-8.390625 0 -12.625 -5.328125q-4.234375 -5.34375 -4.234375 -14.0zm17.265625 15.53125q4.59375 0 7.0625 -3.796875q2.46875 -3.8125 2.46875 -11.265625q0 -7.40625 -2.265625 -11.734375q-2.265625 -4.328125 -7.265625 -4.328125q-4.59375 0 -7.09375 3.796875q-2.5 3.796875 -2.5 11.265625q0 7.390625 2.328125 11.734375q2.328125 4.328125 7.265625 4.328125zm39.059006 -15.53125q0 -6.0 2.46875 -10.390625q2.46875 -4.40625 6.5 -6.703125q4.03125 -2.3125 8.625 -2.3125q8.40625 0 12.625 5.34375q4.234375 5.328125 4.234375 14.0q0 6.0625 -2.46875 10.46875q-2.453125 4.390625 -6.484375 6.65625q-4.03125 2.265625 -8.640625 2.265625q-8.390625 0 -12.625 -5.328125q-4.234375 -5.34375 -4.234375 -14.0zm17.265625 15.53125q4.59375 0 7.0625 -3.796875q2.46875 -3.8125 2.46875 -11.265625q0 -7.40625 -2.265625 -11.734375q-2.265625 -4.328125 -7.265625 -4.328125q-4.59375 0 -7.09375 3.796875q-2.5 3.796875 -2.5 11.265625q0 7.390625 2.328125 11.734375q2.328125 4.328125 7.265625 4.328125zm50.44963 3.734375q-3.796875 0 -5.671875 -1.734375q-1.859375 -1.734375 -1.859375 -5.9375l0 -25.59375l-4.796875 0l0 -3.0q0.34375 -0.0625 1.875 -0.46875q1.53125 -0.40625 2.0625 -0.734375q1.0625 -0.59375 1.671875 -2.390625q0.53125 -1.265625 1.265625 -4.0625q0.734375 -2.8125 0.859375 -3.34375l3.9375 0l0.125 9.59375l11.140625 0l0 4.40625l-11.140625 0l0 20.46875q0 3.796875 0.234375 5.328125q0.234375 1.53125 1.0 2.0q0.765625 0.46875 2.640625 0.46875q1.796875 0 3.953125 -0.46875q2.171875 -0.46875 3.375 -1.0l1.0 3.0q-1.59375 1.203125 -5.171875 2.34375q-3.5625 1.125 -6.5 1.125zm35.12982 -50.390625l-5.59375 -0.734375l0 -2.875l10.859375 -1.265625l0.140625 0l1.46875 1.0l0 15.46875l-0.265625 5.65625q2.1249847 -1.921875 5.8593597 -3.65625q3.734375 -1.734375 7.53125 -1.734375q4.203125 0 6.53125 1.609375q2.34375 1.59375 3.265625 4.890625q0.9375 3.296875 0.9375 8.890625l0 18.609375l4.671875 0.59375l0 3.265625l-15.9375 0l0 -3.265625l4.328125 -0.59375l0 -18.671875q0 -3.9375 -0.53125 -6.15625q-0.53125 -2.234375 -2.0 -3.328125q-1.46875 -1.109375 -4.390625 -1.109375q-2.40625 0 -5.140625 1.203125q-2.734375 1.1875 -4.7968597 2.796875l0 25.265625l4.5937347 0.59375l0 3.265625l-15.531235 0l0 -3.265625l4.0 -0.53125l0 -45.921875zm62.33348 44.390625q0.65625 1.0 2.828125 1.796875q2.171875 0.796875 4.5625 0.796875q3.796875 0 5.59375 -1.46875q1.8125 -1.46875 1.8125 -4.0625q0 -1.796875 -1.140625 -3.125q-1.125 -1.34375 -3.171875 -2.375q-2.03125 -1.03125 -5.828125 -2.5q-5.125 -1.9375 -7.5 -4.625q-2.359375 -2.703125 -2.359375 -7.109375q0 -2.921875 1.765625 -5.125q1.765625 -2.203125 4.859375 -3.4375q3.109375 -1.234375 6.90625 -1.234375q3.0625 0 5.359375 0.46875q2.3125 0.46875 3.703125 0.9375q1.40625 0.46875 1.875 0.59375l0 8.265625l-4.078125 0l-1.328125 -4.9375q-0.40625 -0.796875 -2.140625 -1.359375q-1.71875 -0.5625 -3.859375 -0.5625q-3.0 0 -4.84375 1.328125q-1.828125 1.328125 -1.828125 3.59375q0 2.0 0.96875 3.3125q0.96875 1.296875 2.4375 2.09375q1.46875 0.796875 4.0 1.859375l1.328125 0.546875q3.734375 1.453125 6.0625 2.796875q2.34375 1.328125 3.90625 3.5q1.5625 2.15625 1.5625 5.296875q0 4.9375 -3.828125 7.875q-3.828125 2.921875 -10.5 2.921875q-3.265625 0 -6.828125 -0.890625q-3.5625 -0.90625 -5.828125 -1.84375l0 -8.53125l4.328125 0l1.203125 5.203125zm43.25589 -4.671875q0 -6.265625 6.265625 -9.234375q6.265625 -2.96875 15.859375 -3.15625l0 -1.875q0 -3.125 -0.671875 -4.921875q-0.65625 -1.8125 -2.296875 -2.640625q-1.625 -0.828125 -4.625 -0.828125q-3.40625 0 -6.109375 0.96875q-2.6875 0.953125 -5.359375 2.359375l-1.65625 -3.46875q0.859375 -0.734375 3.1875 -1.921875q2.34375 -1.203125 5.40625 -2.140625q3.0625 -0.9375 6.125 -0.9375q4.734375 0 7.5 1.3125q2.765625 1.296875 3.96875 4.15625q1.203125 2.859375 1.203125 7.671875l0 21.390625l3.9375 0l0 2.9375q-1.34375 0.328125 -3.375 0.65625q-2.03125 0.34375 -3.5625 0.34375q-1.875 0 -2.546875 -0.578125q-0.65625 -0.5625 -0.65625 -2.5l0 -2.1875q-2.0 2.0 -4.90625 3.671875q-2.890625 1.65625 -6.5625 1.65625q-4.796875 0 -7.96875 -2.765625q-3.15625 -2.765625 -3.15625 -7.96875zm14.0 6.203125q1.734375 0 4.0 -1.0625q2.265625 -1.078125 4.125 -2.546875l0 -11.453125q-7.265625 0 -10.96875 2.234375q-3.6875 2.234375 -3.6875 5.828125q0 3.59375 1.765625 5.296875q1.765625 1.703125 4.765625 1.703125z" fill-rule="nonzero"/><path fill="#f3f3f3" d="m412.4889 150.1528q-1.203125 0 -2.578125 -0.203125q-1.359375 -0.1875 -1.953125 -0.453125l0 -7.140625q0.453125 0.265625 1.859375 0.53125q1.40625 0.265625 2.53125 0.265625q3.328125 0 5.5 -2.203125q2.171875 -2.1875 4.03125 -7.390625l-3.59375 0l-12.53125 -32.328125l-3.0 -0.859375l0 -3.875l18.328125 0l0 3.875l-4.859375 0.796875l5.921875 18.453125l2.40625 7.875l2.0625 -7.875l5.46875 -18.453125l-4.203125 -0.796875l0 -3.875l14.46875 0l0 3.875l-3.265625 0.796875q-3.671875 11.1875 -7.28125 21.59375q-3.59375 10.390625 -4.1875 11.65625q-2.125 5.609375 -4.0625 8.9375q-1.9375 3.328125 -4.609375 5.0625q-2.65625 1.734375 -6.453125 1.734375z" fill-rule="nonzero"/><path fill="#f3f3f3" d="m476.93365 134.29343q-8.0625 0 -12.296875 -5.265625q-4.234375 -5.265625 -4.234375 -14.0625q0 -5.796875 2.203125 -10.1875q2.203125 -4.40625 6.171875 -6.8125q3.96875 -2.40625 9.03125 -2.40625q6.203125 0 9.625 3.4375q3.4375 3.4375 3.640625 9.828125q0 4.078125 -0.46875 6.203125l-22.9375 0q0.140625 6.59375 3.0625 10.640625q2.9375 4.03125 8.34375 4.03125q2.671875 0 5.5625 -0.96875q2.90625 -0.96875 4.5 -2.296875l1.265625 2.921875q-1.9375 2.0 -5.734375 3.46875q-3.796875 1.46875 -7.734375 1.46875zm6.8125 -22.796875q0.1875 -1.40625 0.1875 -2.859375q-0.0625 -4.34375 -1.828125 -6.84375q-1.765625 -2.5 -5.5625 -2.5q-3.875 0 -6.171875 2.8125q-2.296875 2.796875 -2.625 9.390625l16.0 0zm28.996155 18.796875l4.984375 -0.40625l0 -28.1875l-4.796875 -1.203125l0 -3.59375l9.203125 -1.203125l0.140625 0l1.453125 1.203125l0 1.1875l-0.1875 5.203125l0.1875 0q0.671875 -1.125 2.40625 -2.921875q1.734375 -1.8125 4.46875 -3.3125q2.734375 -1.5 5.921875 -1.5q1.34375 0 2.203125 0.34375l0 7.453125q-0.46875 -0.328125 -1.5 -0.625q-1.03125 -0.296875 -2.296875 -0.296875q-5.53125 0 -10.265625 3.390625l0 24.0l8.46875 0.53125l0 3.203125l-20.390625 0l0 -3.265625z" fill-rule="nonzero"/></g></svg>