<svg version="1.1" viewBox="0.0 0.0 277.90288713910763 278.93700787401576" fill="none" stroke="none" stroke-linecap="square" stroke-miterlimit="10" xmlns:xlink="http://www.w3.org/1999/xlink" xmlns="http://www.w3.org/2000/svg"><clipPath id="p.0"><path d="m0 0l277.9029 0l0 278.937l-277.9029 0l0 -278.937z" clip-rule="nonzero"/></clipPath><g clip-path="url(#p.0)"><path fill="#000000" fill-opacity="0.0" d="m0 0l277.9029 0l0 278.937l-277.9029 0z" fill-rule="evenodd"/><g filter="url(#shadowFilter-p.1)"><use xlink:href="#p.1" transform="matrix(1.0 0.0 0.0 1.0 0.0 2.0)"/></g><defs><filter id="shadowFilter-p.1" filterUnits="userSpaceOnUse"><feGaussianBlur in="SourceAlpha" stdDeviation="2.0" result="blur"/><feComponentTransfer in="blur" color-interpolation-filters="sRGB"><feFuncR type="linear" slope="0" intercept="0.0"/><feFuncG type="linear" slope="0" intercept="0.0"/><feFuncB type="linear" slope="0" intercept="0.0"/><feFuncA type="linear" slope="0.5" intercept="0"/></feComponentTransfer></filter></defs><g id="p.1"><path fill="#000000" fill-opacity="0.3799" d="m0 0l268.53543 0l0 268.53543l-268.53543 0z" fill-rule="evenodd"/></g><path fill="#000000" d="m9.146981 9.9763775l268.53543 0l0 268.53543l-268.53543 0z" fill-rule="evenodd"/><path stroke="#000000" stroke-width="1.0" stroke-linejoin="round" stroke-linecap="butt" d="m9.146981 9.9763775l268.53543 0l0 268.53543l-268.53543 0z" fill-rule="evenodd"/><path fill="#000000" fill-opacity="0.0" d="m64.367455 63.645668l230.96063 0l0 201.66931l-230.96063 0z" fill-rule="evenodd"/><path fill="#f3f3f3" d="m102.273705 176.10817q-7.046875 0 -12.4375 -1.4375q-5.375 -1.4375 -10.390625 -4.0l-1.0625 -18.015625l1.921875 0l7.5625 13.109375q2.890625 2.34375 6.25 3.625q3.359375 1.28125 6.875 1.28125q5.765625 0 9.390625 -2.71875q3.625 -2.71875 3.625 -8.046875q0 -3.625 -1.65625 -5.96875q-1.65625 -2.359375 -5.5 -4.4375q-3.828125 -2.078125 -10.546875 -5.0625q-7.578125 -3.3125 -11.640625 -7.890625q-4.046875 -4.59375 -4.046875 -11.421883q0 -4.265625 2.1875 -8.15625q2.1875 -3.890625 5.859375 -6.921875q3.6875 -3.046875 8.21875 -4.75q4.53125 -1.703125 9.328125 -1.703125q5.453125 0 10.453125 1.28125q5.015625 1.265625 9.28125 3.625l1.0625 17.0625l-1.8125 0l-7.453125 -12.0625q-2.78125 -2.125 -5.390625 -3.234375q-2.609375 -1.125 -5.921875 -1.125q-4.375 0 -7.25 2.765625q-2.875 2.765625 -2.875 7.359375q0 4.375 3.140625 7.203125q3.140625 2.8281326 10.9375 6.3437576q9.703125 4.484375 14.28125 9.171875q4.5937424 4.6875 4.5937424 12.375q0 6.828125 -3.9531174 11.734375q-3.9375 4.90625 -10.125 7.46875q-6.1875 2.546875 -12.90625 2.546875zm42.453865 24.640625q-2.453125 0 -3.046875 -0.703125q-0.59375 -0.6875 -0.59375 -2.390625l0 -7.359375l0.546875 -0.53125l4.796875 0q2.65625 0 4.421875 -0.375q1.765625 -0.375 3.203125 -2.03125q1.4375 -1.640625 3.03125 -5.484375l2.78125 -6.71875l-21.234375 -44.15625l-6.609375 -2.875l0 -1.7187576l29.4375 0l0 1.7187576l-6.609375 3.09375l0 0.3125l11.734375 24.640625l0.75 0l9.0625 -24.21875l0 -0.421875l-6.296875 -3.40625l0 -1.7187576l20.375 0l0 1.7187576l-7.578125 3.515625l-21.328125 51.828125q-0.953125 2.453125 -1.65625 4.109375q-0.6875 1.65625 -1.546875 3.203125q-0.84375 1.546875 -2.453125 3.78125q-2.125 3.09375 -5.28125 4.640625q-3.140625 1.546875 -5.90625 1.546875z" fill-rule="nonzero"/><path fill="#000000" fill-opacity="0.0" d="m22.464567 237.42258l478.89764 0l0 55.874023l-478.89764 0z" fill-rule="evenodd"/><path fill="#f3f3f3" d="m36.589565 251.64195l0 1.703125l-0.96875 0l0 -1.703125l0.96875 0zm0.03125 3.375l0 6.1093597l2.578125 0q0.234375 0 0.328125 0.09375q0.109375 0.078125 0.109375 0.234375q0 0.140625 -0.109375 0.234375q-0.09375 0.09375 -0.328125 0.09375l-5.8125 0q-0.234375 0 -0.34375 -0.09375q-0.09375 -0.09375 -0.09375 -0.234375q0 -0.15625 0.09375 -0.234375q0.109375 -0.09375 0.34375 -0.09375l2.578125 0l0 -5.4531097l-1.921875 0q-0.234375 0 -0.34375 -0.09375q-0.09375 -0.09375 -0.09375 -0.234375q0 -0.140625 0.09375 -0.234375q0.109375 -0.09375 0.34375 -0.09375l2.578125 0zm6.2578125 0l0 0.65625q0.84375 -0.890625 1.6875 -0.890625q0.5 0 0.875 0.265625q0.390625 0.265625 0.65625 0.8125q0.4375 -0.546875 0.875 -0.8125q0.453125 -0.265625 0.90625 -0.265625q0.71875 0 1.140625 0.453125q0.546875 0.59375 0.546875 1.2968597l0 4.59375l0.5625 0q0.234375 0 0.328125 0.09375q0.109375 0.078125 0.109375 0.234375q0 0.140625 -0.109375 0.234375q-0.09375 0.09375 -0.328125 0.09375l-1.21875 0l0 -5.1875q0 -0.5 -0.3125 -0.82810974q-0.296875 -0.328125 -0.6875 -0.328125q-0.359375 0 -0.765625 0.28125q-0.390625 0.265625 -0.90625 1.0468597l0 4.359375l0.546875 0q0.234375 0 0.328125 0.09375q0.109375 0.078125 0.109375 0.234375q0 0.140625 -0.109375 0.234375q-0.09375 0.09375 -0.328125 0.09375l-1.203125 0l0 -5.140625q0 -0.515625 -0.3125 -0.85935974q-0.3125 -0.34375 -0.6875 -0.34375q-0.359375 0 -0.703125 0.234375q-0.46875 0.3125 -1.0 1.0937347l0 4.359375l0.5625 0q0.234375 0 0.328125 0.09375q0.109375 0.078125 0.109375 0.234375q0 0.140625 -0.109375 0.234375q-0.09375 0.09375 -0.328125 0.09375l-1.765625 0q-0.234375 0 -0.34375 -0.09375q-0.09375 -0.09375 -0.09375 -0.234375q0 -0.15625 0.09375 -0.234375q0.109375 -0.09375 0.34375 -0.09375l0.546875 0l0 -5.4531097l-0.546875 0q-0.234375 0 -0.34375 -0.09375q-0.09375 -0.09375 -0.09375 -0.234375q0 -0.140625 0.09375 -0.234375q0.109375 -0.09375 0.34375 -0.09375l1.203125 0zm10.1171875 0l0 1.1874847q0.59375 -0.70310974 1.265625 -1.0624847q0.671875 -0.359375 1.578125 -0.359375q0.96875 0 1.78125 0.453125q0.828125 0.453125 1.28125 1.2656097q0.453125 0.796875 0.453125 1.6875q0 1.421875 -1.015625 2.421875q-1.015625 1.0 -2.484375 1.0q-1.765625 0 -2.859375 -1.421875l0 3.953125l1.59375 0q0.234375 0 0.328125 0.09375q0.109375 0.09375 0.109375 0.234375q0 0.140625 -0.109375 0.234375q-0.09375 0.09375 -0.328125 0.09375l-3.125 0q-0.234375 0 -0.34375 -0.09375q-0.09375 -0.078125 -0.09375 -0.234375q0 -0.140625 0.09375 -0.234375q0.109375 -0.09375 0.34375 -0.09375l0.875 0l0 -8.468735l-0.875 0q-0.234375 0 -0.34375 -0.09375q-0.09375 -0.09375 -0.09375 -0.234375q0 -0.140625 0.09375 -0.234375q0.109375 -0.09375 0.34375 -0.09375l1.53125 0zm5.6875 3.1718597q0 -1.125 -0.828125 -1.9375q-0.8125 -0.81248474 -2.0 -0.81248474q-1.203125 0 -2.03125 0.81248474q-0.828125 0.8125 -0.828125 1.9375q0 1.140625 0.828125 1.953125q0.828125 0.8125 2.03125 0.8125q1.171875 0 2.0 -0.8125q0.828125 -0.8125 0.828125 -1.953125zm10.054691 0.21875q0 1.5 -1.078125 2.578125q-1.0625 1.0625 -2.578125 1.0625q-1.5312538 0 -2.6093788 -1.0625q-1.0625 -1.078125 -1.0625 -2.578125q0 -1.5 1.0625 -2.5624847q1.078125 -1.0625 2.6093788 -1.0625q1.515625 0 2.578125 1.0625q1.078125 1.0624847 1.078125 2.5624847zm-0.65625 0q0 -1.234375 -0.890625 -2.09375q-0.875 -0.87498474 -2.125 -0.87498474q-1.2500038 0 -2.1250038 0.87498474q-0.875 0.875 -0.875 2.09375q0 1.21875 0.875 2.09375q0.875 0.875 2.1250038 0.875q1.25 0 2.125 -0.859375q0.890625 -0.875 0.890625 -2.109375zm5.8046875 -3.3906097l0 1.6562347q1.28125 -1.1562347 1.921875 -1.4843597q0.640625 -0.34375 1.171875 -0.34375q0.59375 0 1.09375 0.40625q0.5 0.390625 0.5 0.59375q0 0.140625 -0.09375 0.24998474q-0.09375 0.09375 -0.25 0.09375q-0.078125 0 -0.140625 -0.03125q-0.046875 -0.03125 -0.1875 -0.17185974q-0.28125 -0.28125 -0.484375 -0.375q-0.203125 -0.109375 -0.390625 -0.109375q-0.4375 0 -1.046875 0.34375q-0.59375 0.34373474 -2.09375 1.6874847l0 3.59375l2.90625 0q0.25 0 0.34375 0.09375q0.109375 0.078125 0.109375 0.234375q0 0.140625 -0.109375 0.234375q-0.09375 0.09375 -0.34375 0.09375l-5.140625 0q-0.234375 0 -0.34375 -0.09375q-0.09375 -0.09375 -0.09375 -0.234375q0 -0.125 0.09375 -0.21875q0.09375 -0.09375 0.34375 -0.09375l1.578125 0l0 -5.4687347l-1.203125 0q-0.234375 0 -0.34375 -0.09375q-0.09375 -0.09375 -0.09375 -0.234375q0 -0.140625 0.09375 -0.234375q0.09375 -0.09375 0.34375 -0.09375l1.859375 0zm9.0390625 0l3.5625 0q0.234375 0 0.328125 0.09375q0.109375 0.09375 0.109375 0.234375q0 0.140625 -0.109375 0.234375q-0.09375 0.09375 -0.328125 0.09375l-3.5625 0l0 4.3749847q0 0.5625 0.453125 0.953125q0.46875 0.375 1.34375 0.375q0.671875 0 1.4375 -0.1875q0.78125 -0.203125 1.203125 -0.453125q0.15625 -0.109375 0.265625 -0.109375q0.125 0 0.21875 0.109375q0.09375 0.09375 0.09375 0.21875q0 0.125 -0.109375 0.21875q-0.25 0.265625 -1.21875 0.578125q-0.953125 0.296875 -1.84375 0.296875q-1.140625 0 -1.828125 -0.546875q-0.671875 -0.546875 -0.671875 -1.453125l0 -4.3749847l-1.21875 0q-0.234375 0 -0.34375 -0.09375q-0.09375 -0.09375 -0.09375 -0.234375q0 -0.140625 0.09375 -0.234375q0.109375 -0.09375 0.34375 -0.09375l1.21875 0l0 -1.9375q0 -0.234375 0.09375 -0.328125q0.09375 -0.109375 0.234375 -0.109375q0.140625 0 0.234375 0.109375q0.09375 0.09375 0.09375 0.328125l0 1.9375z" fill-rule="nonzero"/><path fill="#f3f3f3" d="m105.20676 256.5638q-0.390625 -0.25 -0.828125 -0.359375q-0.421875 -0.125 -0.890625 -0.125q-0.921875 0 -1.46875 0.296875q-0.25 0.140625 -0.25 0.296875q0 0.171875 0.328125 0.34375q0.25 0.125 1.125 0.25q1.59375 0.21875 2.21875 0.4375q0.8125 0.28125 1.25 0.859375q0.453125 0.5625 0.453125 1.203125q0 0.859375 -0.75 1.4375q-1.09375 0.84375 -2.828125 0.84375q-0.6875 0 -1.28125 -0.125q-0.59375 -0.125 -1.078125 -0.359375q-0.125 0.09375 -0.265625 0.15625q-0.125 0.046875 -0.265625 0.046875q-0.375 0 -0.59375 -0.234375q-0.21875 -0.25 -0.21875 -0.828125l0 -0.546875q0 -0.578125 0.21875 -0.8125q0.21875 -0.25 0.578125 -0.25q0.296875 0 0.484375 0.15625q0.203125 0.15625 0.3125 0.546875q0.359375 0.3125 0.875 0.484375q0.515625 0.15625 1.1875 0.15625q1.109375 0 1.71875 -0.34375q0.28125 -0.171875 0.28125 -0.359375q0 -0.3125 -0.40625 -0.515625q-0.421875 -0.203125 -1.71875 -0.34375q-1.921875 -0.203125 -2.578125 -0.78125q-0.640625 -0.578125 -0.640625 -1.40625q0 -0.85935974 0.71875 -1.4374847q0.984375 -0.78125 2.578125 -0.78125q0.5625 0 1.0625 0.109375q0.515625 0.109375 0.984375 0.328125q0.15625 -0.109375 0.28125 -0.15625q0.125 -0.0625 0.234375 -0.0625q0.328125 0 0.546875 0.25q0.21875 0.234375 0.21875 0.8125l0 0.39060974q0 0.53125 -0.125 0.71875q-0.25 0.359375 -0.671875 0.359375q-0.296875 0 -0.515625 -0.171875q-0.21875 -0.1875 -0.28125 -0.484375zm12.0390625 1.796875q0 0.921875 -0.515625 1.796875q-0.515625 0.859375 -1.53125 1.375q-1.0 0.515625 -2.109375 0.515625q-1.09375 0 -2.09375 -0.5q-1.0 -0.515625 -1.53125 -1.375q-0.515625 -0.875 -0.515625 -1.828125q0 -0.953125 0.53125 -1.875q0.53125 -0.93748474 1.53125 -1.4687347q1.0 -0.53125 2.078125 -0.53125q1.09375 0 2.109375 0.546875q1.015625 0.546875 1.53125 1.4687347q0.515625 0.90625 0.515625 1.875zm-1.609375 0.015625q0 -0.78125 -0.546875 -1.421875q-0.765625 -0.875 -2.0 -0.875q-1.078125 0 -1.8125 0.703125q-0.71875 0.6875 -0.71875 1.59375q0 0.75 0.734375 1.40625q0.734375 0.65625 1.796875 0.65625q1.078125 0 1.8125 -0.65625q0.734375 -0.65625 0.734375 -1.40625zm11.2109375 -0.015625q0 0.921875 -0.515625 1.796875q-0.515625 0.859375 -1.53125 1.375q-1.0 0.515625 -2.109375 0.515625q-1.09375 0 -2.09375 -0.5q-1.0 -0.515625 -1.53125 -1.375q-0.515625 -0.875 -0.515625 -1.828125q0 -0.953125 0.53125 -1.875q0.53125 -0.93748474 1.53125 -1.4687347q1.0 -0.53125 2.078125 -0.53125q1.09375 0 2.109375 0.546875q1.015625 0.546875 1.53125 1.4687347q0.515625 0.90625 0.515625 1.875zm-1.609375 0.015625q0 -0.78125 -0.546875 -1.421875q-0.765625 -0.875 -2.0 -0.875q-1.078125 0 -1.8125 0.703125q-0.71875 0.6875 -0.71875 1.59375q0 0.75 0.734375 1.40625q0.734375 0.65625 1.796875 0.65625q1.078125 0 1.8125 -0.65625q0.734375 -0.65625 0.734375 -1.40625zm6.6484375 -2.09375l0 3.21875q0 0.515625 0.21875 0.671875q0.328125 0.265625 1.171875 0.265625q1.21875 0 2.265625 -0.53125q0.390625 -0.203125 0.625 -0.203125q0.3125 0 0.53125 0.234375q0.234375 0.234375 0.234375 0.578125q0 0.3125 -0.25 0.53125q-0.375 0.375 -1.515625 0.6875q-1.125 0.3125 -1.890625 0.3125q-1.5 0 -2.25 -0.640625q-0.734375 -0.65625 -0.734375 -1.59375l0 -3.53125l-0.578125 0q-0.578125 0 -0.828125 -0.21875q-0.25 -0.21873474 -0.25 -0.57810974q0 -0.359375 0.25 -0.578125q0.25 -0.21875 0.828125 -0.21875l0.578125 0l0 -1.453125q0 -0.578125 0.21875 -0.8125q0.21875 -0.25 0.578125 -0.25q0.359375 0 0.578125 0.25q0.21875 0.234375 0.21875 0.8125l0 1.453125l2.96875 0q0.578125 0 0.8125 0.21875q0.25 0.21875 0.25 0.578125q0 0.359375 -0.25 0.57810974q-0.234375 0.21875 -0.8125 0.21875l-2.96875 0zm8.3515625 -4.6406097l0 3.421875q0.5 -0.296875 1.0 -0.4375q0.515625 -0.15625 1.046875 -0.15625q0.828125 0 1.46875 0.28125q0.65625 0.28125 1.078125 0.890625q0.421875 0.60935974 0.421875 1.5312347l0 3.0q0.609375 0 0.796875 0.125q0.375 0.234375 0.375 0.6875q0 0.34375 -0.25 0.578125q-0.234375 0.21875 -0.8125 0.21875l-1.828125 0q-0.5625 0 -0.8125 -0.21875q-0.25 -0.234375 -0.25 -0.59375q0 -0.4375 0.375 -0.671875q0.203125 -0.125 0.796875 -0.125l0 -2.890625q0 -0.625 -0.28125 -0.875q-0.359375 -0.328125 -1.078125 -0.328125q-0.53125 0 -0.953125 0.203125q-0.40625 0.203125 -1.09375 0.890625l0 3.0q0.609375 0 0.796875 0.125q0.375 0.234375 0.375 0.6875q0 0.34375 -0.25 0.578125q-0.234375 0.21875 -0.8125 0.21875l-1.828125 0q-0.578125 0 -0.828125 -0.21875q-0.234375 -0.234375 -0.234375 -0.59375q0 -0.4375 0.375 -0.671875q0.1875 -0.125 0.796875 -0.125l0 -6.9218597l-0.265625 0q-0.578125 0 -0.828125 -0.21875q-0.25 -0.234375 -0.25 -0.59375q0 -0.34375 0.25 -0.5625q0.25 -0.234375 0.828125 -0.234375l1.875 0zm12.9765625 4.9218597q-0.390625 -0.25 -0.828125 -0.359375q-0.421875 -0.125 -0.890625 -0.125q-0.921875 0 -1.46875 0.296875q-0.25 0.140625 -0.25 0.296875q0 0.171875 0.328125 0.34375q0.25 0.125 1.125 0.25q1.59375 0.21875 2.21875 0.4375q0.8125 0.28125 1.25 0.859375q0.453125 0.5625 0.453125 1.203125q0 0.859375 -0.75 1.4375q-1.09375 0.84375 -2.828125 0.84375q-0.6875 0 -1.28125 -0.125q-0.59375 -0.125 -1.078125 -0.359375q-0.125 0.09375 -0.265625 0.15625q-0.125 0.046875 -0.265625 0.046875q-0.375 0 -0.59375 -0.234375q-0.21875 -0.25 -0.21875 -0.828125l0 -0.546875q0 -0.578125 0.21875 -0.8125q0.21875 -0.25 0.578125 -0.25q0.296875 0 0.484375 0.15625q0.203125 0.15625 0.3125 0.546875q0.359375 0.3125 0.875 0.484375q0.515625 0.15625 1.1875 0.15625q1.109375 0 1.71875 -0.34375q0.28125 -0.171875 0.28125 -0.359375q0 -0.3125 -0.40625 -0.515625q-0.421875 -0.203125 -1.71875 -0.34375q-1.921875 -0.203125 -2.578125 -0.78125q-0.640625 -0.578125 -0.640625 -1.40625q0 -0.85935974 0.71875 -1.4374847q0.984375 -0.78125 2.578125 -0.78125q0.5625 0 1.0625 0.109375q0.515625 0.109375 0.984375 0.328125q0.15625 -0.109375 0.28125 -0.15625q0.125 -0.0625 0.234375 -0.0625q0.328125 0 0.546875 0.25q0.21875 0.234375 0.21875 0.8125l0 0.39060974q0 0.53125 -0.125 0.71875q-0.25 0.359375 -0.671875 0.359375q-0.296875 0 -0.515625 -0.171875q-0.21875 -0.1875 -0.28125 -0.484375zm9.3203125 5.21875l0 -0.375q-0.609375 0.3125 -1.34375 0.46875q-0.71875 0.171875 -1.3125 0.171875q-1.28125 0 -2.09375 -0.6875q-0.796875 -0.6875 -0.796875 -1.515625q0 -1.0 1.015625 -1.859375q1.03125 -0.875 2.84375 -0.875q0.734375 0 1.6875 0.15625l0 -0.375q0 -0.359375 -0.3125 -0.578125q-0.3125 -0.234375 -1.171875 -0.234375q-0.71875 0 -1.84375 0.28125q-0.421875 0.09375 -0.65625 0.09375q-0.328125 0 -0.546875 -0.21875q-0.21875 -0.234375 -0.21875 -0.59373474q0 -0.203125 0.078125 -0.34375q0.078125 -0.15625 0.21875 -0.25q0.140625 -0.09375 0.578125 -0.21875q0.59375 -0.15625 1.203125 -0.25q0.625 -0.109375 1.125 -0.109375q1.5 0 2.3125 0.65625q0.828125 0.640625 0.828125 1.7499847l0 3.296875l0.28125 0q0.578125 0 0.8125 0.234375q0.25 0.21875 0.25 0.578125q0 0.34375 -0.25 0.578125q-0.234375 0.21875 -0.8125 0.21875l-1.875 0zm0 -2.875q-0.96875 -0.1875 -1.78125 -0.1875q-0.96875 0 -1.671875 0.484375q-0.4375 0.296875 -0.4375 0.609375q0 0.234375 0.203125 0.375q0.390625 0.25 1.078125 0.25q0.578125 0 1.296875 -0.21875q0.734375 -0.234375 1.3125 -0.625l0 -0.6875zm7.2578125 2.8125l-2.765625 -5.4375q-0.390625 -0.046875 -0.59375 -0.265625q-0.203125 -0.21873474 -0.203125 -0.53123474q0 -0.359375 0.234375 -0.578125q0.25 -0.21875 0.828125 -0.21875l1.46875 0q0.578125 0 0.8125 0.21875q0.25 0.21875 0.25 0.578125q0 0.359375 -0.25 0.57810974q-0.234375 0.21875 -0.765625 0.21875l1.890625 3.6875l1.875 -3.6875q-0.515625 0 -0.765625 -0.21875q-0.25 -0.21873474 -0.25 -0.57810974q0 -0.359375 0.25 -0.578125q0.25 -0.21875 0.828125 -0.21875l1.5 0q0.578125 0 0.8125 0.21875q0.25 0.21875 0.25 0.578125q0 0.328125 -0.21875 0.54685974q-0.203125 0.21875 -0.609375 0.25l-3.671875 7.25q0.59375 0 0.78125 0.109375q0.375 0.25 0.375 0.6875q0 0.359375 -0.25 0.578125q-0.234375 0.21875 -0.8125 0.21875l-3.5 0q-0.578125 0 -0.828125 -0.21875q-0.234375 -0.21875 -0.234375 -0.578125q0 -0.359375 0.234375 -0.578125q0.25 -0.21875 0.828125 -0.21875l1.59375 0l0.90625 -1.8125zm14.5234375 -2.671875l-6.578125 0q0.25 0.625 0.890625 1.015625q0.640625 0.375 1.71875 0.375q0.890625 0 2.375 -0.390625q0.609375 -0.15625 0.84375 -0.15625q0.3125 0 0.53125 0.234375q0.21875 0.21875 0.21875 0.5625q0 0.3125 -0.234375 0.53125q-0.3125 0.296875 -1.53125 0.5625q-1.203125 0.265625 -2.3125 0.265625q-1.921875 0 -3.078125 -1.09375q-1.15625 -1.09375 -1.15625 -2.671875q0 -1.6875 1.25 -2.7499847q1.25 -1.0625 2.875 -1.0625q0.96875 0 1.78125 0.34375q0.828125 0.34375 1.21875 0.75q0.5625 0.57810974 0.9375 1.4218597q0.25 0.59375 0.25 1.375l0 0.6875zm-1.78125 -1.609375q-0.359375 -0.6875 -0.953125 -1.015625q-0.59375 -0.34375 -1.421875 -0.34375q-0.8125 0 -1.40625 0.34375q-0.59375 0.328125 -0.96875 1.015625l4.75 0zm7.0234375 -2.7499847l0 1.0q1.015625 -0.734375 1.59375 -0.96875q0.578125 -0.25 1.09375 -0.25q0.78125 0 1.515625 0.578125q0.5 0.390625 0.5 0.796875q0 0.34373474 -0.25 0.59373474q-0.234375 0.234375 -0.5625 0.234375q-0.296875 0 -0.625 -0.296875q-0.328125 -0.296875 -0.59375 -0.296875q-0.328125 0 -1.0 0.421875q-0.671875 0.421875 -1.671875 1.265625l0 2.40625l2.28125 0q0.578125 0 0.828125 0.234375q0.25 0.21875 0.25 0.578125q0 0.34375 -0.25 0.578125q-0.25 0.21875 -0.828125 0.21875l-4.828125 0q-0.578125 0 -0.828125 -0.21875q-0.25 -0.234375 -0.25 -0.59375q0 -0.34375 0.25 -0.5625q0.25 -0.234375 0.828125 -0.234375l0.953125 0l0 -3.890625l-0.578125 0q-0.578125 0 -0.828125 -0.21875q-0.25 -0.21873474 -0.25 -0.57810974q0 -0.359375 0.25 -0.578125q0.25 -0.21875 0.828125 -0.21875l2.171875 0z" fill-rule="nonzero"/><path fill="#f3f3f3" d="m210.9802 261.78256l0 -0.953125q-1.421875 1.21875 -3.046875 1.21875q-1.1875 0 -1.859375 -0.59375q-0.65625 -0.609375 -0.65625 -1.484375q0 -0.953125 0.875 -1.65625q0.875 -0.71875 2.5625 -0.71875q0.453125 0 0.984375 0.0625q0.53125 0.0625 1.140625 0.1875l0 -1.0625q0 -0.546875 -0.5 -0.93748474q-0.5 -0.40625 -1.5 -0.40625q-0.765625 0 -2.140625 0.453125q-0.25 0.078125 -0.328125 0.078125q-0.125 0 -0.21875 -0.09375q-0.078125 -0.09375 -0.078125 -0.234375q0 -0.140625 0.078125 -0.21875q0.109375 -0.109375 0.875 -0.3125q1.21875 -0.328125 1.84375 -0.328125q1.25 0 1.9375 0.609375q0.703125 0.60935974 0.703125 1.3906097l0 4.34375l0.875 0q0.234375 0 0.328125 0.09375q0.109375 0.078125 0.109375 0.234375q0 0.140625 -0.109375 0.234375q-0.09375 0.09375 -0.328125 0.09375l-1.546875 0zm0 -3.265625q-0.453125 -0.140625 -0.96875 -0.203125q-0.515625 -0.0625 -1.09375 -0.0625q-1.421875 0 -2.234375 0.625q-0.609375 0.453125 -0.609375 1.09375q0 0.59375 0.46875 1.0q0.46875 0.40625 1.359375 0.40625q0.84375 0 1.578125 -0.328125q0.734375 -0.34375 1.5 -1.09375l0 -1.4375zm9.8828125 -3.0781097q0 -0.21875 0.09375 -0.3125q0.09375 -0.109375 0.234375 -0.109375q0.15625 0 0.25 0.109375q0.09375 0.09375 0.09375 0.328125l0 1.1249847q0 0.234375 -0.09375 0.34375q-0.09375 0.09375 -0.25 0.09375q-0.125 0 -0.21875 -0.078125q-0.09375 -0.09375 -0.109375 -0.28125q-0.046875 -0.46875 -0.484375 -0.78123474q-0.640625 -0.4375 -1.6875 -0.4375q-1.109375 0 -1.71875 0.453125q-0.453125 0.32810974 -0.453125 0.74998474q0 0.46875 0.546875 0.78125q0.375 0.21875 1.421875 0.328125q1.359375 0.15625 1.890625 0.34375q0.765625 0.265625 1.125 0.75q0.375 0.484375 0.375 1.046875q0 0.84375 -0.8125 1.5q-0.796875 0.65625 -2.34375 0.65625q-1.5625 0 -2.546875 -0.796875q0 0.265625 -0.03125 0.34375q-0.03125 0.078125 -0.125 0.140625q-0.078125 0.046875 -0.171875 0.046875q-0.140625 0 -0.234375 -0.09375q-0.09375 -0.109375 -0.09375 -0.34375l0 -1.359375q0 -0.234375 0.078125 -0.328125q0.09375 -0.109375 0.25 -0.109375q0.140625 0 0.234375 0.109375q0.09375 0.09375 0.09375 0.25q0 0.359375 0.1875 0.609375q0.265625 0.375 0.859375 0.625q0.609375 0.234375 1.46875 0.234375q1.28125 0 1.90625 -0.46875q0.625 -0.484375 0.625 -1.015625q0 -0.609375 -0.625 -0.96875q-0.640625 -0.375 -1.875 -0.5q-1.21875 -0.125 -1.75 -0.328125q-0.53125 -0.203125 -0.828125 -0.609375q-0.296875 -0.40625 -0.296875 -0.875q0 -0.84373474 0.828125 -1.3281097q0.828125 -0.5 1.984375 -0.5q1.359375 0 2.203125 0.65625z" fill-rule="nonzero"/><path fill="#f3f3f3" d="m239.62863 256.5638q-0.390625 -0.25 -0.828125 -0.359375q-0.421875 -0.125 -0.890625 -0.125q-0.921875 0 -1.46875 0.296875q-0.25 0.140625 -0.25 0.296875q0 0.171875 0.328125 0.34375q0.25 0.125 1.125 0.25q1.59375 0.21875 2.21875 0.4375q0.8125 0.28125 1.25 0.859375q0.453125 0.5625 0.453125 1.203125q0 0.859375 -0.75 1.4375q-1.09375 0.84375 -2.828125 0.84375q-0.6875 0 -1.28125 -0.125q-0.59375 -0.125 -1.078125 -0.359375q-0.125 0.09375 -0.265625 0.15625q-0.125 0.046875 -0.265625 0.046875q-0.375 0 -0.59375 -0.234375q-0.21875 -0.25 -0.21875 -0.828125l0 -0.546875q0 -0.578125 0.21875 -0.8125q0.21875 -0.25 0.578125 -0.25q0.296875 0 0.484375 0.15625q0.203125 0.15625 0.3125 0.546875q0.359375 0.3125 0.875 0.484375q0.515625 0.15625 1.1875 0.15625q1.109375 0 1.71875 -0.34375q0.28125 -0.171875 0.28125 -0.359375q0 -0.3125 -0.40625 -0.515625q-0.421875 -0.203125 -1.71875 -0.34375q-1.921875 -0.203125 -2.578125 -0.78125q-0.640625 -0.578125 -0.640625 -1.40625q0 -0.85935974 0.71875 -1.4374847q0.984375 -0.78125 2.578125 -0.78125q0.5625 0 1.0625 0.109375q0.515625 0.109375 0.984375 0.328125q0.15625 -0.109375 0.28125 -0.15625q0.125 -0.0625 0.234375 -0.0625q0.328125 0 0.546875 0.25q0.21875 0.234375 0.21875 0.8125l0 0.39060974q0 0.53125 -0.125 0.71875q-0.25 0.359375 -0.671875 0.359375q-0.296875 0 -0.515625 -0.171875q-0.21875 -0.1875 -0.28125 -0.484375zm6.9765625 5.15625l-2.765625 -5.4375q-0.390625 -0.046875 -0.59375 -0.265625q-0.203125 -0.21873474 -0.203125 -0.53123474q0 -0.359375 0.234375 -0.578125q0.25 -0.21875 0.828125 -0.21875l1.46875 0q0.578125 0 0.8125 0.21875q0.25 0.21875 0.25 0.578125q0 0.359375 -0.25 0.57810974q-0.234375 0.21875 -0.765625 0.21875l1.890625 3.6875l1.875 -3.6875q-0.515625 0 -0.765625 -0.21875q-0.25 -0.21873474 -0.25 -0.57810974q0 -0.359375 0.25 -0.578125q0.25 -0.21875 0.828125 -0.21875l1.5 0q0.578125 0 0.8125 0.21875q0.25 0.21875 0.25 0.578125q0 0.328125 -0.21875 0.54685974q-0.203125 0.21875 -0.609375 0.25l-3.671875 7.25q0.59375 0 0.78125 0.109375q0.375 0.25 0.375 0.6875q0 0.359375 -0.25 0.578125q-0.234375 0.21875 -0.8125 0.21875l-3.5 0q-0.578125 0 -0.828125 -0.21875q-0.234375 -0.21875 -0.234375 -0.578125q0 -0.359375 0.234375 -0.578125q0.25 -0.21875 0.828125 -0.21875l1.59375 0l0.90625 -1.8125z" fill-rule="nonzero"/></g></svg>